<svg width="50" height="50" viewBox="0 0 50 50" fill="none" xmlns="http://www.w3.org/2000/svg">
<rect width="50" height="50" rx="6" fill="#748CAB" fill-opacity="0.34"/>
<path d="M27.6595 14.8052L29.8593 19.2411C30.1593 19.8586 30.9592 20.4509 31.6341 20.5643L35.6212 21.2322C38.1709 21.6607 38.7708 23.5257 36.9335 25.3656L33.8339 28.4909C33.3089 29.0202 33.0215 30.0409 33.1839 30.7718L34.0713 34.6406C34.7713 37.7029 33.1589 38.8875 30.4717 37.287L26.7346 35.0565C26.0597 34.6532 24.9473 34.6532 24.2599 35.0565L20.5228 37.287C17.8481 38.8875 16.2233 37.6903 16.9232 34.6406L17.8106 30.7718C17.9731 30.0409 17.6856 29.0202 17.1607 28.4909L14.061 25.3656C12.2362 23.5257 12.8237 21.6607 15.3734 21.2322L19.3605 20.5643C20.0229 20.4509 20.8228 19.8586 21.1228 19.2411L23.3225 14.8052C24.5224 12.3983 26.4722 12.3983 27.6595 14.8052Z" stroke="#748CAB" stroke-width="2" stroke-linecap="round" stroke-linejoin="round"/>
</svg>
