<svg width="50" height="50" viewBox="0 0 50 50" fill="none" xmlns="http://www.w3.org/2000/svg">
<rect width="50" height="50" rx="6" fill="#748CAB" fill-opacity="0.34"/>
<path d="M31.75 20.4583C31.6875 20.4478 31.6146 20.4478 31.5521 20.4583C30.1146 20.4062 28.9688 19.2291 28.9688 17.7708C28.9688 16.2812 30.1667 15.0833 31.6562 15.0833C33.1458 15.0833 34.3437 16.2916 34.3437 17.7708C34.3333 19.2291 33.1875 20.4062 31.75 20.4583Z" stroke="#748CAB" stroke-width="1.5" stroke-linecap="round" stroke-linejoin="round"/>
<path d="M30.6771 28.0415C32.1042 28.2811 33.6771 28.0311 34.7813 27.2915C36.25 26.3123 36.25 24.7082 34.7813 23.729C33.6667 22.9894 32.073 22.7394 30.6459 22.9894" stroke="#748CAB" stroke-width="1.5" stroke-linecap="round" stroke-linejoin="round"/>
<path d="M19.2188 20.4583C19.2813 20.4478 19.3542 20.4478 19.4167 20.4583C20.8542 20.4062 22 19.2291 22 17.7708C22 16.2812 20.8021 15.0833 19.3125 15.0833C17.8229 15.0833 16.625 16.2916 16.625 17.7708C16.6354 19.2291 17.7813 20.4062 19.2188 20.4583Z" stroke="#748CAB" stroke-width="1.5" stroke-linecap="round" stroke-linejoin="round"/>
<path d="M20.2917 28.0415C18.8646 28.2811 17.2917 28.0311 16.1875 27.2915C14.7188 26.3123 14.7188 24.7082 16.1875 23.729C17.3021 22.9894 18.8958 22.7394 20.3229 22.9894" stroke="#748CAB" stroke-width="1.5" stroke-linecap="round" stroke-linejoin="round"/>
<path d="M25.5 28.2395C25.4375 28.2291 25.3646 28.2291 25.3021 28.2395C23.8646 28.1874 22.7188 27.0103 22.7188 25.552C22.7188 24.0624 23.9167 22.8645 25.4062 22.8645C26.8958 22.8645 28.0938 24.0728 28.0938 25.552C28.0833 27.0103 26.9375 28.1978 25.5 28.2395Z" stroke="#748CAB" stroke-width="1.5" stroke-linecap="round" stroke-linejoin="round"/>
<path d="M22.4687 31.5208C21 32.4999 21 34.1041 22.4687 35.0833C24.1354 36.1978 26.8646 36.1978 28.5312 35.0833C30 34.1041 30 32.4999 28.5312 31.5208C26.875 30.4166 24.1354 30.4166 22.4687 31.5208Z" stroke="#748CAB" stroke-width="1.5" stroke-linecap="round" stroke-linejoin="round"/>
</svg>
