<svg width="50" height="50" viewBox="0 0 50 50" fill="none" xmlns="http://www.w3.org/2000/svg">
<rect width="50" height="50" rx="6" fill="#748CAB" fill-opacity="0.34"/>
<path d="M21.3333 15.0833V18.2083" stroke="#748CAB" stroke-width="1.5" stroke-miterlimit="10" stroke-linecap="round" stroke-linejoin="round"/>
<path d="M29.6667 15.0833V18.2083" stroke="#748CAB" stroke-width="1.5" stroke-miterlimit="10" stroke-linecap="round" stroke-linejoin="round"/>
<path d="M16.6458 22.4688H34.3542" stroke="#748CAB" stroke-width="1.5" stroke-miterlimit="10" stroke-linecap="round" stroke-linejoin="round"/>
<path d="M34.875 21.8541V30.7083C34.875 33.8333 33.3125 35.9166 29.6667 35.9166H21.3333C17.6875 35.9166 16.125 33.8333 16.125 30.7083V21.8541C16.125 18.7291 17.6875 16.6458 21.3333 16.6458H29.6667C33.3125 16.6458 34.875 18.7291 34.875 21.8541Z" stroke="#748CAB" stroke-width="1.5" stroke-miterlimit="10" stroke-linecap="round" stroke-linejoin="round"/>
<path d="M29.3487 27.2708H29.358" stroke="#748CAB" stroke-width="1.5" stroke-linecap="round" stroke-linejoin="round"/>
<path d="M29.3487 30.3958H29.358" stroke="#748CAB" stroke-width="1.5" stroke-linecap="round" stroke-linejoin="round"/>
<path d="M25.4953 27.2708H25.5047" stroke="#748CAB" stroke-width="1.5" stroke-linecap="round" stroke-linejoin="round"/>
<path d="M25.4953 30.3958H25.5047" stroke="#748CAB" stroke-width="1.5" stroke-linecap="round" stroke-linejoin="round"/>
<path d="M21.6399 27.2708H21.6493" stroke="#748CAB" stroke-width="1.5" stroke-linecap="round" stroke-linejoin="round"/>
<path d="M21.6399 30.3958H21.6493" stroke="#748CAB" stroke-width="1.5" stroke-linecap="round" stroke-linejoin="round"/>
</svg>
