<svg width="15" height="15" viewBox="0 0 15 15" fill="none" xmlns="http://www.w3.org/2000/svg">
<path d="M7.49977 0C3.35818 0 0 3.35795 0 7.49977C0 11.6416 3.35818 14.9995 7.49977 14.9995C11.6423 14.9995 15 11.6416 15 7.49977C15 3.35792 11.6423 0 7.49977 0ZM8.81666 10.943C8.51329 11.2796 8.33941 11.4797 8.01196 11.7928C7.51632 12.2667 6.95353 12.3929 6.51598 11.9251C5.88706 11.2525 6.54668 9.20622 6.56276 9.12873C6.68089 8.58486 6.91667 7.49786 6.91667 7.49786C6.91667 7.49786 6.40729 7.8097 6.10488 7.92029C5.88185 8.0018 5.62954 7.89478 5.56717 7.67906C5.50904 7.4792 5.55533 7.35208 5.67773 7.21553C5.98107 6.87908 6.15495 6.67898 6.48243 6.36595C6.97854 5.89178 7.54087 5.76586 7.97842 6.23341C8.60733 6.90603 8.1433 8.01267 7.98029 8.7968C7.96424 8.87452 7.5777 10.6609 7.5777 10.6609C7.5777 10.6609 8.08708 10.349 8.38948 10.2382C8.61296 10.1569 8.86529 10.2642 8.92767 10.4797C8.98582 10.6796 8.93906 10.8067 8.81666 10.943ZM8.003 5.15962C7.30321 5.22103 6.68657 4.70364 6.62514 4.00336C6.5642 3.30381 7.08158 2.68693 7.7814 2.626C8.48071 2.56456 9.09782 3.08244 9.15879 3.78199C9.22019 4.48157 8.70231 5.09868 8.003 5.15962Z" fill="#15171B"/>
</svg>
