<svg width="159" height="38" viewBox="0 0 159 38" fill="none" xmlns="http://www.w3.org/2000/svg">
<path d="M157.981 32.3301L159 38L152.5 36H154L154.5 35.5H155L156 35L156.481 34.8301L157.981 32.3301Z" fill="#15171B"/>
<rect width="158" height="36" rx="4" fill="#15171B"/>
<path d="M13.6211 13.4688V22H12.4902V13.4688H13.6211ZM17.1953 17.3066V18.2324H13.375V17.3066H17.1953ZM17.7754 13.4688V14.3945H13.375V13.4688H17.7754ZM18.943 18.9004V18.7656C18.943 18.3086 19.0094 17.8848 19.1422 17.4941C19.275 17.0996 19.4664 16.7578 19.7164 16.4688C19.9664 16.1758 20.2691 15.9492 20.6246 15.7891C20.9801 15.625 21.3785 15.543 21.8199 15.543C22.2652 15.543 22.6656 15.625 23.0211 15.7891C23.3805 15.9492 23.6852 16.1758 23.9352 16.4688C24.1891 16.7578 24.3824 17.0996 24.5152 17.4941C24.648 17.8848 24.7145 18.3086 24.7145 18.7656V18.9004C24.7145 19.3574 24.648 19.7812 24.5152 20.1719C24.3824 20.5625 24.1891 20.9043 23.9352 21.1973C23.6852 21.4863 23.3824 21.7129 23.027 21.877C22.6754 22.0371 22.277 22.1172 21.8316 22.1172C21.3863 22.1172 20.9859 22.0371 20.6305 21.877C20.275 21.7129 19.9703 21.4863 19.7164 21.1973C19.4664 20.9043 19.275 20.5625 19.1422 20.1719C19.0094 19.7812 18.943 19.3574 18.943 18.9004ZM20.027 18.7656V18.9004C20.027 19.2168 20.0641 19.5156 20.1383 19.7969C20.2125 20.0742 20.3238 20.3203 20.4723 20.5352C20.6246 20.75 20.8141 20.9199 21.0406 21.0449C21.2672 21.166 21.5309 21.2266 21.8316 21.2266C22.1285 21.2266 22.3883 21.166 22.6109 21.0449C22.8375 20.9199 23.025 20.75 23.1734 20.5352C23.3219 20.3203 23.4332 20.0742 23.5074 19.7969C23.5855 19.5156 23.6246 19.2168 23.6246 18.9004V18.7656C23.6246 18.4531 23.5855 18.1582 23.5074 17.8809C23.4332 17.5996 23.3199 17.3516 23.1676 17.1367C23.0191 16.918 22.8316 16.7461 22.6051 16.6211C22.3824 16.4961 22.1207 16.4336 21.8199 16.4336C21.523 16.4336 21.2613 16.4961 21.0348 16.6211C20.8121 16.7461 20.6246 16.918 20.4723 17.1367C20.3238 17.3516 20.2125 17.5996 20.1383 17.8809C20.0641 18.1582 20.027 18.4531 20.027 18.7656ZM27.5578 16.6562V22H26.4738V15.6602H27.5285L27.5578 16.6562ZM29.5383 15.625L29.5324 16.6328C29.4426 16.6133 29.3566 16.6016 29.2746 16.5977C29.1965 16.5898 29.1066 16.5859 29.0051 16.5859C28.7551 16.5859 28.5344 16.625 28.343 16.7031C28.1516 16.7812 27.9895 16.8906 27.8566 17.0312C27.7238 17.1719 27.6184 17.3398 27.5402 17.5352C27.466 17.7266 27.4172 17.9375 27.3938 18.168L27.0891 18.3438C27.0891 17.9609 27.1262 17.6016 27.2004 17.2656C27.2785 16.9297 27.3977 16.6328 27.5578 16.375C27.718 16.1133 27.9211 15.9102 28.1672 15.7656C28.4172 15.6172 28.7141 15.543 29.0578 15.543C29.1359 15.543 29.2258 15.5527 29.3273 15.5723C29.4289 15.5879 29.4992 15.6055 29.5383 15.625ZM32.0184 16.9199V22H30.9285V15.6602H31.9598L32.0184 16.9199ZM31.7957 18.5898L31.2918 18.5723C31.2957 18.1387 31.3523 17.7383 31.4617 17.3711C31.5711 17 31.7332 16.6777 31.948 16.4043C32.1629 16.1309 32.4305 15.9199 32.7508 15.7715C33.0711 15.6191 33.4422 15.543 33.8641 15.543C34.1609 15.543 34.4344 15.5859 34.6844 15.6719C34.9344 15.7539 35.1512 15.8848 35.3348 16.0645C35.5184 16.2441 35.6609 16.4746 35.7625 16.7559C35.8641 17.0371 35.9148 17.377 35.9148 17.7754V22H34.8309V17.8281C34.8309 17.4961 34.7742 17.2305 34.6609 17.0312C34.5516 16.832 34.3953 16.6875 34.1922 16.5977C33.9891 16.5039 33.7508 16.457 33.4773 16.457C33.157 16.457 32.8895 16.5137 32.6746 16.627C32.4598 16.7402 32.2879 16.8965 32.159 17.0957C32.0301 17.2949 31.9363 17.5234 31.8777 17.7812C31.823 18.0352 31.7957 18.3047 31.7957 18.5898ZM35.9031 17.9922L35.1766 18.2148C35.1805 17.8672 35.2371 17.5332 35.3465 17.2129C35.4598 16.8926 35.6219 16.6074 35.8328 16.3574C36.0477 16.1074 36.3113 15.9102 36.6238 15.7656C36.9363 15.6172 37.2938 15.543 37.6961 15.543C38.0359 15.543 38.3367 15.5879 38.5984 15.6777C38.8641 15.7676 39.0867 15.9062 39.2664 16.0938C39.45 16.2773 39.5887 16.5137 39.6824 16.8027C39.7762 17.0918 39.823 17.4355 39.823 17.834V22H38.7332V17.8223C38.7332 17.4668 38.6766 17.1914 38.5633 16.9961C38.4539 16.7969 38.2977 16.6582 38.0945 16.5801C37.8953 16.498 37.657 16.457 37.3797 16.457C37.1414 16.457 36.9305 16.498 36.7469 16.5801C36.5633 16.6621 36.409 16.7754 36.284 16.9199C36.159 17.0605 36.0633 17.2227 35.9969 17.4062C35.9344 17.5898 35.9031 17.7852 35.9031 17.9922ZM45.602 20.916V17.6523C45.602 17.4023 45.5512 17.1855 45.4496 17.002C45.352 16.8145 45.2035 16.6699 45.0043 16.5684C44.8051 16.4668 44.559 16.416 44.266 16.416C43.9926 16.416 43.7523 16.4629 43.5453 16.5566C43.3422 16.6504 43.182 16.7734 43.0648 16.9258C42.9516 17.0781 42.8949 17.2422 42.8949 17.418H41.8109C41.8109 17.1914 41.8695 16.9668 41.9867 16.7441C42.1039 16.5215 42.2719 16.3203 42.4906 16.1406C42.7133 15.957 42.9789 15.8125 43.2875 15.707C43.6 15.5977 43.9477 15.543 44.3305 15.543C44.7914 15.543 45.1977 15.6211 45.5492 15.7773C45.9047 15.9336 46.182 16.1699 46.3813 16.4863C46.5844 16.7988 46.6859 17.1914 46.6859 17.6641V20.6172C46.6859 20.8281 46.7035 21.0527 46.7387 21.291C46.7777 21.5293 46.8344 21.7344 46.9086 21.9062V22H45.7777C45.723 21.875 45.6801 21.709 45.6488 21.502C45.6176 21.291 45.602 21.0957 45.602 20.916ZM45.7895 18.1562L45.8012 18.918H44.7055C44.3969 18.918 44.1215 18.9434 43.8793 18.9941C43.6371 19.041 43.434 19.1133 43.2699 19.2109C43.1059 19.3086 42.9809 19.4316 42.8949 19.5801C42.809 19.7246 42.766 19.8945 42.766 20.0898C42.766 20.2891 42.8109 20.4707 42.9008 20.6348C42.9906 20.7988 43.1254 20.9297 43.3051 21.0273C43.4887 21.1211 43.7133 21.168 43.9789 21.168C44.3109 21.168 44.6039 21.0977 44.8578 20.957C45.1117 20.8164 45.3129 20.6445 45.4613 20.4414C45.6137 20.2383 45.6957 20.041 45.7074 19.8496L46.1703 20.3711C46.143 20.5352 46.0688 20.7168 45.9477 20.916C45.8266 21.1152 45.6645 21.3066 45.4613 21.4902C45.2621 21.6699 45.0238 21.8203 44.7465 21.9414C44.473 22.0586 44.1645 22.1172 43.8207 22.1172C43.391 22.1172 43.0141 22.0332 42.6898 21.8652C42.3695 21.6973 42.1195 21.4727 41.9398 21.1914C41.7641 20.9062 41.6762 20.5879 41.6762 20.2363C41.6762 19.8965 41.7426 19.5977 41.8754 19.3398C42.0082 19.0781 42.1996 18.8613 42.4496 18.6895C42.6996 18.5137 43.0004 18.3809 43.352 18.291C43.7035 18.2012 44.0961 18.1562 44.5297 18.1562H45.7895ZM51.4453 15.6602V16.4922H48.0176V15.6602H51.4453ZM49.1777 14.1191H50.2617V20.4297C50.2617 20.6445 50.2949 20.8066 50.3613 20.916C50.4277 21.0254 50.5137 21.0977 50.6191 21.1328C50.7246 21.168 50.8379 21.1855 50.959 21.1855C51.0488 21.1855 51.1426 21.1777 51.2402 21.1621C51.3418 21.1426 51.418 21.127 51.4688 21.1152L51.4746 22C51.3887 22.0273 51.2754 22.0527 51.1348 22.0762C50.998 22.1035 50.832 22.1172 50.6367 22.1172C50.3711 22.1172 50.127 22.0645 49.9043 21.959C49.6816 21.8535 49.5039 21.6777 49.3711 21.4316C49.2422 21.1816 49.1777 20.8457 49.1777 20.4238V14.1191ZM52.7125 18.9004V18.7656C52.7125 18.3086 52.7789 17.8848 52.9117 17.4941C53.0445 17.0996 53.2359 16.7578 53.4859 16.4688C53.7359 16.1758 54.0387 15.9492 54.3941 15.7891C54.7496 15.625 55.148 15.543 55.5895 15.543C56.0348 15.543 56.4352 15.625 56.7906 15.7891C57.15 15.9492 57.4547 16.1758 57.7047 16.4688C57.9586 16.7578 58.152 17.0996 58.2848 17.4941C58.4176 17.8848 58.484 18.3086 58.484 18.7656V18.9004C58.484 19.3574 58.4176 19.7812 58.2848 20.1719C58.152 20.5625 57.9586 20.9043 57.7047 21.1973C57.4547 21.4863 57.152 21.7129 56.7965 21.877C56.4449 22.0371 56.0465 22.1172 55.6012 22.1172C55.1559 22.1172 54.7555 22.0371 54.4 21.877C54.0445 21.7129 53.7398 21.4863 53.4859 21.1973C53.2359 20.9043 53.0445 20.5625 52.9117 20.1719C52.7789 19.7812 52.7125 19.3574 52.7125 18.9004ZM53.7965 18.7656V18.9004C53.7965 19.2168 53.8336 19.5156 53.9078 19.7969C53.982 20.0742 54.0934 20.3203 54.2418 20.5352C54.3941 20.75 54.5836 20.9199 54.8102 21.0449C55.0367 21.166 55.3004 21.2266 55.6012 21.2266C55.898 21.2266 56.1578 21.166 56.3805 21.0449C56.607 20.9199 56.7945 20.75 56.943 20.5352C57.0914 20.3203 57.2027 20.0742 57.277 19.7969C57.3551 19.5156 57.3941 19.2168 57.3941 18.9004V18.7656C57.3941 18.4531 57.3551 18.1582 57.277 17.8809C57.2027 17.5996 57.0895 17.3516 56.9371 17.1367C56.7887 16.918 56.6012 16.7461 56.3746 16.6211C56.152 16.4961 55.8902 16.4336 55.5895 16.4336C55.2926 16.4336 55.0309 16.4961 54.8043 16.6211C54.5816 16.7461 54.3941 16.918 54.2418 17.1367C54.0934 17.3516 53.982 17.5996 53.9078 17.8809C53.8336 18.1582 53.7965 18.4531 53.7965 18.7656ZM60.1965 21.4258C60.1965 21.2422 60.2531 21.0879 60.3664 20.9629C60.4836 20.834 60.6516 20.7695 60.8703 20.7695C61.0891 20.7695 61.2551 20.834 61.3684 20.9629C61.4855 21.0879 61.5441 21.2422 61.5441 21.4258C61.5441 21.6055 61.4855 21.7578 61.3684 21.8828C61.2551 22.0078 61.0891 22.0703 60.8703 22.0703C60.6516 22.0703 60.4836 22.0078 60.3664 21.8828C60.2531 21.7578 60.1965 21.6055 60.1965 21.4258ZM60.2023 16.252C60.2023 16.0684 60.259 15.9141 60.3723 15.7891C60.4895 15.6602 60.6574 15.5957 60.8762 15.5957C61.0949 15.5957 61.2609 15.6602 61.3742 15.7891C61.4914 15.9141 61.55 16.0684 61.55 16.252C61.55 16.4316 61.4914 16.584 61.3742 16.709C61.2609 16.834 61.0949 16.8965 60.8762 16.8965C60.6574 16.8965 60.4895 16.834 60.3723 16.709C60.259 16.584 60.2023 16.4316 60.2023 16.252ZM67.8227 13.4688L69.8734 16.7383L71.9242 13.4688H73.2426L70.5473 17.6934L73.307 22H71.977L69.8734 18.666L67.7699 22H66.4398L69.1996 17.6934L66.5043 13.4688H67.8227ZM75.7461 13.4688L77.7969 16.7383L79.8477 13.4688H81.166L78.4707 17.6934L81.2305 22H79.9004L77.7969 18.666L75.6934 22H74.3633L77.123 17.6934L74.4277 13.4688H75.7461ZM83.6695 13.4688L85.7203 16.7383L87.7711 13.4688H89.0895L86.3941 17.6934L89.1539 22H87.8238L85.7203 18.666L83.6168 22H82.2867L85.0465 17.6934L82.3512 13.4688H83.6695ZM91.593 13.4688L93.6438 16.7383L95.6945 13.4688H97.0129L94.3176 17.6934L97.0773 22H95.7473L93.6438 18.666L91.5402 22H90.2102L92.9699 17.6934L90.2746 13.4688H91.593ZM99.5164 13.4688L101.567 16.7383L103.618 13.4688H104.936L102.241 17.6934L105.001 22H103.671L101.567 18.666L99.4637 22H98.1336L100.893 17.6934L98.198 13.4688H99.5164ZM107.44 13.4688L109.491 16.7383L111.541 13.4688H112.86L110.164 17.6934L112.924 22H111.594L109.491 18.666L107.387 22H106.057L108.817 17.6934L106.121 13.4688H107.44ZM116.453 17.9277V18.8184H113.594V17.9277H116.453ZM118.81 13.4688L120.861 16.7383L122.912 13.4688H124.23L121.535 17.6934L124.295 22H122.964L120.861 18.666L118.757 22H117.427L120.187 17.6934L117.492 13.4688H118.81ZM129.611 13.4688L126.054 22.7324H125.122L128.685 13.4688H129.611ZM132.091 13.4688L134.141 16.7383L136.192 13.4688H137.511L134.815 17.6934L137.575 22H136.245L134.141 18.666L132.038 22H130.708L133.468 17.6934L130.772 13.4688H132.091ZM140.014 13.4688L142.065 16.7383L144.116 13.4688H145.434L142.739 17.6934L145.498 22H144.168L142.065 18.666L139.961 22H138.631L141.391 17.6934L138.696 13.4688H140.014Z" fill="#FFFDF6"/>
</svg>
