<svg width="95" height="95" viewBox="0 0 95 95" fill="none" xmlns="http://www.w3.org/2000/svg">
<path d="M20.7812 71.25C17.5156 71.25 14.8438 68.5781 14.8438 65.3125V29.6875C14.8438 26.4219 17.5156 23.75 20.7812 23.75C24.0469 23.75 26.7188 26.4219 26.7188 29.6875V65.3125C26.7188 68.5781 24.0469 71.25 20.7812 71.25Z" stroke="#FFFDF6" stroke-width="4" stroke-miterlimit="10" stroke-linecap="round" stroke-linejoin="round"/>
<path d="M8.90625 62.3438C5.64062 62.3438 2.96875 59.6719 2.96875 56.4062V38.5938C2.96875 35.3281 5.64062 32.6562 8.90625 32.6562C12.1719 32.6562 14.8438 35.3281 14.8438 38.5938V56.4062C14.8438 59.6719 12.1719 62.3438 8.90625 62.3438Z" stroke="#FFFDF6" stroke-width="4" stroke-miterlimit="10" stroke-linecap="round" stroke-linejoin="round"/>
<path d="M74.2188 23.75C77.4844 23.75 80.1562 26.4219 80.1562 29.6875V65.3125C80.1562 68.5781 77.4844 71.25 74.2188 71.25C70.9531 71.25 68.2812 68.5781 68.2812 65.3125V29.6875C68.2812 26.4219 70.9531 23.75 74.2188 23.75Z" stroke="#FFFDF6" stroke-width="4" stroke-miterlimit="10" stroke-linecap="round" stroke-linejoin="round"/>
<path d="M86.0938 32.6562C89.3594 32.6562 92.0312 35.3281 92.0312 38.5938V56.4062C92.0312 59.6719 89.3594 62.3438 86.0938 62.3438C82.8281 62.3438 80.1562 59.6719 80.1562 56.4062V38.5938C80.1562 35.3281 82.8281 32.6562 86.0938 32.6562Z" stroke="#FFFDF6" stroke-width="4" stroke-miterlimit="10" stroke-linecap="round" stroke-linejoin="round"/>
<path d="M26.7188 47.5H68.2812" stroke="#FFFDF6" stroke-width="4" stroke-miterlimit="10" stroke-linecap="round" stroke-linejoin="round"/>
</svg>
