<svg width="95" height="95" viewBox="0 0 95 95" fill="none" xmlns="http://www.w3.org/2000/svg">
<path d="M84.3125 89.0625H10.6875C8.90625 89.0625 7.125 87.875 6.53125 86.0938C1.78125 74.5156 1.78125 61.75 6.53125 50.1719C7.125 48.3906 8.90625 47.2031 10.6875 47.2031H84.3125C86.0937 47.2031 87.875 48.3906 88.4687 50.1719C93.2187 61.75 93.2187 74.5156 88.4687 86.0938C87.875 87.875 86.0937 89.0625 84.3125 89.0625Z" stroke="#FFFDF6" stroke-width="4" stroke-miterlimit="10" stroke-linecap="round" stroke-linejoin="round"/>
<path d="M29.6877 89.0625L28.2033 77.4844C25.2346 55.8125 28.2033 33.8438 36.5158 13.6562C37.7033 10.6875 40.6721 8.90625 43.6408 8.90625H51.0627C54.3283 8.90625 57.0002 10.6875 58.1877 13.6562C66.5002 33.8438 69.4689 55.8125 66.5002 77.4844L65.3127 89.0625" stroke="#FFFDF6" stroke-width="4" stroke-miterlimit="10" stroke-linecap="round" stroke-linejoin="round"/>
</svg>
