<svg width="17" height="17" viewBox="0 0 17 17" fill="none" xmlns="http://www.w3.org/2000/svg">
<path fill-rule="evenodd" clip-rule="evenodd" d="M15.9375 8.50018C15.9375 8.35929 15.8815 8.22416 15.7819 8.12453C15.6822 8.0249 15.5471 7.96893 15.4062 7.96893H2.87616L6.21985 4.62631C6.26924 4.57691 6.30842 4.51828 6.33515 4.45374C6.36189 4.3892 6.37564 4.32004 6.37564 4.25018C6.37564 4.18033 6.36189 4.11116 6.33515 4.04663C6.30842 3.98209 6.26924 3.92345 6.21985 3.87406C6.17045 3.82466 6.11182 3.78548 6.04728 3.75875C5.98274 3.73202 5.91358 3.71826 5.84372 3.71826C5.77387 3.71826 5.7047 3.73202 5.64017 3.75875C5.57563 3.78548 5.51699 3.82466 5.4676 3.87406L1.2176 8.12406C1.16812 8.17341 1.12887 8.23203 1.10209 8.29657C1.07531 8.36111 1.06152 8.4303 1.06152 8.50018C1.06152 8.57006 1.07531 8.63925 1.10209 8.70379C1.12887 8.76833 1.16812 8.82696 1.2176 8.87631L5.4676 13.1263C5.51699 13.1757 5.57563 13.2149 5.64017 13.2416C5.7047 13.2683 5.77387 13.2821 5.84372 13.2821C5.91358 13.2821 5.98274 13.2683 6.04728 13.2416C6.11182 13.2149 6.17045 13.1757 6.21985 13.1263C6.26924 13.0769 6.30842 13.0183 6.33515 12.9537C6.36189 12.8892 6.37564 12.82 6.37564 12.7502C6.37564 12.6803 6.36189 12.6112 6.33515 12.5466C6.30842 12.4821 6.26924 12.4235 6.21985 12.3741L2.87616 9.03143H15.4062C15.5471 9.03143 15.6822 8.97546 15.7819 8.87583C15.8815 8.7762 15.9375 8.64108 15.9375 8.50018Z" fill="#15171B"/>
</svg>
